<?xml version="1.0" encoding="UTF-8"?><svg id="Capa_2" xmlns="http://www.w3.org/2000/svg" viewBox="0 0 2211.42 907.55"><defs><style>.cls-1{fill:#fff;}</style></defs><g id="Capa_1-2"><path class="cls-1" d="M187.4.21c46.48-4.76,90.33,73.68,107.96,109.28,100.73,203.43,119.03,448.77,30.58,659.9-30.43,72.65-100.83,190.52-191.3,112.47C55.55,813.62,9.75,637.21,1.79,536.05-9.07,398.01,30.27,215.71,96.17,93.83,113.13,62.46,148.74,4.17,187.4.21ZM188.33,71.1c-7.3,1.5-13.8,13.41-17.51,19.45C59.89,270.72,17.12,504.66,93.94,706.7c13.86,36.45,50.5,111.76,84.37,131.46,39.12,22.77,74.66-39.18,89.73-67.73,90.17-170.77,75.48-411.25-4.66-583-14.85-31.82-36.75-76.08-55.98-104.9-4.54-6.8-9.9-13.32-19.08-11.44Z"/><path class="cls-1" d="M289.5,441.62H95.69c6.57-63.89,19.06-129.01,40.94-189.4,7.46-20.58,29.57-75.35,49.25-84.64,14-6.61,28.96,17.23,35.1,27.28,11.96,19.57,22.08,44.61,29.59,66.34,20.02,57.88,31.16,119.7,38.93,180.42Z"/><path class="cls-1" d="M93.69,510.57l197.38.98c-4.11,53.55-13.7,107.77-31.51,158.44-10.05,28.57-26.72,67.3-47.46,89.44-17.1,18.25-26.51,13.71-41.44-3.54-19.52-22.54-34.95-57.86-45-85.9-18.17-50.66-28.88-105.67-31.96-159.42Z"/><path class="cls-1" d="M558.48,281.15h83.86l64.16,393.96h-61.91l-11.26-78.23v1.13h-70.35l-11.26,77.1h-57.41l64.16-393.96ZM626.02,544.54l-27.58-194.73h-1.13l-27.01,194.73h55.72Z"/><path class="cls-1" d="M736.32,281.15h61.91v337.68h101.87v56.28h-163.78v-393.96Z"/><path class="cls-1" d="M951.31,655.13c-15.76-17.07-23.64-41.55-23.64-73.45v-300.54h61.91v305.04c0,13.51,2.72,23.27,8.16,29.27,5.43,6.01,13.23,9,23.36,9s17.91-3,23.36-9c5.43-6,8.16-15.76,8.16-29.27v-305.04h59.66v300.54c0,31.9-7.88,56.38-23.64,73.45-15.76,17.08-38.65,25.61-68.66,25.61s-52.9-8.53-68.66-25.61Z"/><path class="cls-1" d="M1204.57,337.43h-64.72v-56.28h191.35v56.28h-64.72v337.68h-61.91v-337.68Z"/><path class="cls-1" d="M1361.02,281.15h91.74c31.89,0,55.15,7.41,69.79,22.23,14.63,14.83,21.95,37.62,21.95,68.38v24.2c0,40.9-13.51,66.79-40.52,77.67v1.13c15,4.5,25.61,13.7,31.8,27.58,6.19,13.89,9.29,32.46,9.29,55.72v69.22c0,11.26.37,20.36,1.13,27.3.75,6.95,2.62,13.79,5.63,20.54h-63.03c-2.25-6.38-3.75-12.38-4.5-18.01-.76-5.63-1.13-15.76-1.13-30.39v-72.04c0-18.01-2.91-30.58-8.72-37.71-5.82-7.12-15.86-10.69-30.11-10.69h-21.39v168.84h-61.91v-393.96ZM1445.45,449.99c12.38,0,21.67-3.18,27.86-9.57,6.19-6.38,9.29-17.07,9.29-32.08v-30.39c0-14.25-2.53-24.57-7.6-30.95-5.06-6.38-13.04-9.57-23.92-9.57h-28.14v112.56h22.51Z"/><path class="cls-1" d="M1587.83,281.15h168.84v56.28h-106.93v104.12h84.98v56.28h-84.98v121h106.93v56.28h-168.84v-393.96Z"/><path class="cls-1" d="M1811.55,655.41c-15.57-16.88-23.36-40.71-23.36-71.48v-211.61c0-30.76,7.78-54.59,23.36-71.48,15.57-16.88,38.17-25.33,67.82-25.33s52.24,8.44,67.82,25.33c15.56,16.88,23.36,40.72,23.36,71.48v41.65h-58.53v-45.59c0-24.38-10.32-36.58-30.95-36.58s-30.95,12.2-30.95,36.58v220.06c0,24.02,10.32,36.02,30.95,36.02s30.95-12,30.95-36.02v-60.22h58.53v55.72c0,30.77-7.79,54.59-23.36,71.48-15.57,16.88-38.18,25.33-67.82,25.33s-52.25-8.44-67.82-25.33Z"/><path class="cls-1" d="M2007.68,281.15h61.91v166.03l78.79-166.03h61.91l-73.73,144.64,74.85,249.32h-64.72l-52.34-175.6-24.76,50.09v125.51h-61.91v-393.96Z"/></g></svg>